<svg width="1000" height="1000" viewBox="0 0 1000 1000" fill="none" xmlns="http://www.w3.org/2000/svg">
<rect width="1000" height="1000" fill="#3775BB"/>
<rect x="35.5" y="38.5" width="928" height="928" stroke="white" stroke-width="3"/>
<path d="M37 194.5H962" stroke="white" stroke-width="3"/>
<path d="M290 194.5V39.5" stroke="white" stroke-width="3"/>
<path fill-rule="evenodd" clip-rule="evenodd" d="M114.727 133.23L114.805 133.308C114.856 133.358 114.906 133.408 114.957 133.458C114.957 133.458 130.098 148.658 147.23 133.458C151.721 128.995 157.617 126.781 163.502 126.815C169.387 126.781 175.282 128.995 179.772 133.458C179.772 133.458 194.913 148.658 212.045 133.458C212.083 133.42 212.121 133.382 212.159 133.345C212.197 133.306 212.235 133.268 212.273 133.23C227.46 116.101 212.273 100.957 212.273 100.957C212.248 100.931 212.222 100.906 212.197 100.88C212.174 100.857 212.152 100.834 212.129 100.81L212.096 100.778L212.045 100.727C194.916 85.54 179.772 100.727 179.772 100.727C175.281 105.19 169.384 107.404 163.499 107.37C157.614 107.404 151.719 105.19 147.23 100.727C130.101 85.54 114.957 100.727 114.957 100.727C114.918 100.766 114.879 100.804 114.839 100.843C114.802 100.881 114.765 100.919 114.727 100.957C114.727 100.957 99.5271 116.098 114.727 133.23ZM251 149.405C251.009 143.552 248.795 137.696 244.356 133.23C229.157 116.098 244.356 100.957 244.356 100.957C248.795 96.4918 251.01 90.6359 251 84.7828C251.025 78.9448 248.797 73.0987 244.317 68.6436C244.266 68.5923 244.214 68.5413 244.162 68.4906C239.736 64.1413 233.981 61.9782 228.231 62.0002C222.374 61.9878 216.514 64.2023 212.045 68.6436C194.913 83.8434 179.772 68.6436 179.772 68.6436C175.282 64.1806 169.387 61.9662 163.502 62.0005C157.617 61.9662 151.721 64.1806 147.23 68.6436C130.098 83.8434 114.957 68.6436 114.957 68.6436C110.489 64.2026 104.63 61.9881 98.7739 62.0002C92.9414 61.9781 87.1014 64.2045 82.6493 68.6781C78.1987 73.1196 75.9827 78.9376 76.0001 84.7506C75.9827 90.6137 78.1972 96.4826 82.6435 100.957C82.6435 100.957 97.8304 116.101 82.6435 133.23C78.1977 137.702 75.9833 143.569 76.0001 149.431C75.9835 155.162 78.1372 160.898 82.4602 165.316C82.5209 165.378 82.582 165.441 82.6435 165.502C87.0984 169.984 92.9459 172.211 98.7858 172.185C104.637 172.193 110.492 169.979 114.957 165.541C114.957 165.541 130.101 150.355 147.23 165.541C151.719 170.004 157.614 172.219 163.499 172.185C169.384 172.219 175.281 170.004 179.772 165.541C179.772 165.541 194.916 150.355 212.045 165.541C216.508 169.979 222.361 172.193 228.212 172.185C234.044 172.211 239.884 169.99 244.338 165.521C248.804 161.07 251.024 155.234 251 149.405Z" fill="white"/>
</svg>
