<svg width="156" height="99" viewBox="0 0 156 99" fill="none" xmlns="http://www.w3.org/2000/svg">
<path fill-rule="evenodd" clip-rule="evenodd" d="M34.5125 63.4778C34.5387 63.5042 34.5649 63.5307 34.5909 63.5572C34.6332 63.5985 34.6752 63.64 34.7172 63.6816C34.7172 63.6816 48.2108 77.2272 63.4778 63.6816C67.4801 59.7043 72.7346 57.7309 77.9792 57.7615C83.2238 57.7309 88.4777 59.7043 92.4785 63.6816C92.4785 63.6816 105.972 77.2272 121.239 63.6816C121.275 63.6456 121.312 63.6097 121.348 63.5739C121.38 63.5419 121.411 63.51 121.443 63.4782C134.977 48.2139 121.443 34.7175 121.443 34.7175C121.398 34.6721 121.353 34.6266 121.308 34.5809L121.239 34.5123C105.975 20.9782 92.4785 34.5123 92.4785 34.5123C88.4762 38.4897 83.2216 40.463 77.9771 40.4325C72.7325 40.463 67.4786 38.4897 63.4778 34.5123C48.2136 20.9782 34.7172 34.5123 34.7172 34.5123C34.6843 34.545 34.6514 34.5775 34.6184 34.6098C34.5832 34.6457 34.5479 34.6815 34.5125 34.7172C34.5125 34.7172 20.9669 48.2108 34.5125 63.4778ZM155.955 77.9187C155.97 72.6944 153.997 67.4649 150.035 63.4782C136.489 48.2111 150.035 34.7175 150.035 34.7175C153.997 30.7319 155.97 25.503 155.955 20.2783C155.971 15.084 153.986 9.88441 150 5.92052C149.943 5.86384 149.885 5.80756 149.828 5.75169C145.906 1.9145 140.818 -0.00228122 135.731 0.000323653C130.49 -0.0277859 125.239 1.94561 121.239 5.92052C105.972 19.4661 92.4785 5.92052 92.4785 5.92052C88.4777 1.94319 83.2238 -0.0301891 77.9792 0.000377243C72.7346 -0.0301891 67.4801 1.94319 63.4778 5.92052C48.2108 19.4661 34.7172 5.92052 34.7172 5.92052C30.7329 1.95963 25.5059 -0.013847 20.2829 0.000100989C15.1042 -0.0162646 9.91997 1.95645 5.95989 5.91718L5.95653 5.92052C1.96275 9.88941 -0.022328 15.0987 0.000189417 20.3015C-0.00849782 25.5176 1.96499 30.7367 5.92065 34.7172C5.92065 34.7172 19.4548 48.2136 5.92065 63.4778C1.96569 67.4561 -0.0077958 72.6734 0.00018497 77.8886C-0.0217918 83.0271 1.91458 88.1729 5.80825 92.1245C5.84554 92.1626 5.883 92.2006 5.92065 92.2385C9.8818 96.223 15.0785 98.2081 20.2712 98.1938C25.4973 98.2103 30.729 96.2368 34.7172 92.2735C34.7172 92.2735 48.2136 78.7393 63.4778 92.2735C67.4786 96.2508 72.7325 98.2242 77.9771 98.1936C83.2216 98.2242 88.4762 96.2508 92.4785 92.2735C92.4785 92.2735 105.975 78.7393 121.239 92.2735C125.212 96.2229 130.42 98.1964 135.628 98.1939C140.839 98.2222 146.058 96.2372 150.035 92.2388C150.043 92.2305 150.051 92.2221 150.06 92.2137C154.005 88.2591 155.97 83.0867 155.955 77.9187Z" fill="#3775BB"/>
</svg>
