<svg width="483" height="308" viewBox="0 0 483 308" fill="none" xmlns="http://www.w3.org/2000/svg">
<path d="M216.506 17.1367C214.312 17.1367 213.04 15.291 213.047 12.0508C213.04 8.83789 214.325 6.96484 216.506 6.96484C218.68 6.96484 219.965 8.83789 219.965 12.0508C219.965 15.291 218.7 17.1367 216.506 17.1367ZM214.236 12.0508C214.243 14.6143 215.07 16.043 216.506 16.043C217.935 16.043 218.769 14.6143 218.762 12.0508C218.769 9.4873 217.928 8.03809 216.506 8.03125C215.084 8.03809 214.243 9.4873 214.236 12.0508ZM222.098 17.082C221.619 17.0752 221.209 16.6787 221.223 16.1934C221.209 15.7148 221.619 15.3184 222.098 15.3184C222.583 15.3184 222.979 15.7148 222.973 16.1934C222.979 16.6787 222.583 17.0752 222.098 17.082ZM224.805 17L224.791 16.0977L228.168 12.543C229.337 11.2988 229.897 10.6289 229.904 9.71289C229.897 8.69434 229.05 8.03809 227.936 8.03125C226.753 8.03809 226.015 8.7832 226.008 9.89062H224.846C224.832 8.14062 226.186 6.96484 227.977 6.96484C229.774 6.96484 231.046 8.1748 231.053 9.71289C231.046 10.8203 230.533 11.6816 228.783 13.4863L226.514 15.8242V15.9062H231.23V17H224.805ZM233.814 7.10156L236.33 11.1895H236.412L238.941 7.10156H240.391L237.287 12.0508L240.391 17H238.941L236.412 12.9941H236.33L233.801 17H232.352L235.537 12.0508L232.352 7.10156H233.814Z" fill="#3775BB"/>
<path d="M285.723 290.102V300H284.479V291.387H284.424L282.018 292.986V291.742L284.479 290.102H285.723ZM288.621 300.082C288.143 300.075 287.732 299.679 287.746 299.193C287.732 298.715 288.143 298.318 288.621 298.318C289.106 298.318 289.503 298.715 289.496 299.193C289.503 299.679 289.106 300.075 288.621 300.082ZM291.082 297.977V296.965L295.539 290.102H297.057V296.896H298.438V297.977H297.057V300H295.881V297.977H291.082ZM292.408 296.896H295.881V291.66H295.758L292.408 296.814V296.896ZM300.857 290.102L303.373 294.189H303.455L305.984 290.102H307.434L304.33 295.051L307.434 300H305.984L303.455 295.994H303.373L300.844 300H299.395L302.58 295.051L299.395 290.102H300.857Z" fill="#3775BB"/>
<path d="M155.455 281.102V291H154.211V282.387H154.156L151.75 283.986V282.742L154.211 281.102H155.455ZM158.354 291.082C157.875 291.075 157.465 290.679 157.479 290.193C157.465 289.715 157.875 289.318 158.354 289.318C158.839 289.318 159.235 289.715 159.229 290.193C159.235 290.679 158.839 291.075 158.354 291.082ZM164.109 291.137C162.141 291.137 160.726 290.084 160.664 288.512H161.908C161.977 289.455 162.913 290.043 164.096 290.043C165.401 290.043 166.345 289.339 166.352 288.307C166.345 287.227 165.483 286.468 163.945 286.461H163.139V285.381H163.945C165.148 285.381 165.989 284.704 165.982 283.686C165.989 282.694 165.265 282.038 164.137 282.031C163.077 282.038 162.113 282.619 162.059 283.59H160.869C160.931 282.018 162.394 280.965 164.15 280.965C166.037 280.965 167.186 282.202 167.172 283.617C167.186 284.745 166.529 285.565 165.49 285.859V285.928C166.782 286.126 167.562 287.049 167.555 288.307C167.562 289.934 166.085 291.137 164.109 291.137ZM170.125 281.102L172.641 285.189H172.723L175.252 281.102H176.701L173.598 286.051L176.701 291H175.252L172.723 286.994H172.641L170.111 291H168.662L171.848 286.051L168.662 281.102H170.125Z" fill="#3775BB"/>
<path d="M2.15039 144.102L4.66602 148.189H4.74805L7.27734 144.102H8.72656L5.62305 149.051L8.72656 154H7.27734L4.74805 149.994H4.66602L2.13672 154H0.6875L3.87305 149.051L0.6875 144.102H2.15039Z" fill="#3775BB"/>
<path d="M458.17 68.1367C455.976 68.1367 454.704 66.291 454.711 63.0508C454.704 59.8379 455.989 57.9648 458.17 57.9648C460.344 57.9648 461.629 59.8379 461.629 63.0508C461.629 66.291 460.364 68.1367 458.17 68.1367ZM455.9 63.0508C455.907 65.6143 456.734 67.043 458.17 67.043C459.599 67.043 460.433 65.6143 460.426 63.0508C460.433 60.4873 459.592 59.0381 458.17 59.0312C456.748 59.0381 455.907 60.4873 455.9 63.0508ZM463.762 68.082C463.283 68.0752 462.873 67.6787 462.887 67.1934C462.873 66.7148 463.283 66.3184 463.762 66.3184C464.247 66.3184 464.644 66.7148 464.637 67.1934C464.644 67.6787 464.247 68.0752 463.762 68.082ZM469.504 68.1367C467.72 68.1367 466.366 67.0361 466.291 65.5117H467.48C467.569 66.3936 468.431 67.0498 469.504 67.0566C470.789 67.0498 471.719 66.1133 471.719 64.8691C471.719 63.584 470.755 62.6338 469.422 62.627C468.588 62.6133 467.938 62.873 467.576 63.5156H466.387L467.084 58.1016H472.443V59.1953H468.109L467.74 62.0938H467.836C468.28 61.752 468.943 61.5195 469.641 61.5195C471.527 61.5195 472.915 62.9141 472.922 64.8418C472.915 66.7559 471.479 68.1367 469.504 68.1367ZM475.424 58.1016L477.939 62.1895H478.021L480.551 58.1016H482L478.896 63.0508L482 68H480.551L478.021 63.9941H477.939L475.41 68H473.961L477.146 63.0508L473.961 58.1016H475.424Z" fill="#3775BB"/>
<path d="M458.17 240.137C455.976 240.137 454.704 238.291 454.711 235.051C454.704 231.838 455.989 229.965 458.17 229.965C460.344 229.965 461.629 231.838 461.629 235.051C461.629 238.291 460.364 240.137 458.17 240.137ZM455.9 235.051C455.907 237.614 456.734 239.043 458.17 239.043C459.599 239.043 460.433 237.614 460.426 235.051C460.433 232.487 459.592 231.038 458.17 231.031C456.748 231.038 455.907 232.487 455.9 235.051ZM463.762 240.082C463.283 240.075 462.873 239.679 462.887 239.193C462.873 238.715 463.283 238.318 463.762 238.318C464.247 238.318 464.644 238.715 464.637 239.193C464.644 239.679 464.247 240.075 463.762 240.082ZM469.504 240.137C467.72 240.137 466.366 239.036 466.291 237.512H467.48C467.569 238.394 468.431 239.05 469.504 239.057C470.789 239.05 471.719 238.113 471.719 236.869C471.719 235.584 470.755 234.634 469.422 234.627C468.588 234.613 467.938 234.873 467.576 235.516H466.387L467.084 230.102H472.443V231.195H468.109L467.74 234.094H467.836C468.28 233.752 468.943 233.52 469.641 233.52C471.527 233.52 472.915 234.914 472.922 236.842C472.915 238.756 471.479 240.137 469.504 240.137ZM475.424 230.102L477.939 234.189H478.021L480.551 230.102H482L478.896 235.051L482 240H480.551L478.021 235.994H477.939L475.41 240H473.961L477.146 235.051L473.961 230.102H475.424Z" fill="#3775BB"/>
<g clip-path="url(#clip0_604_17)">
<rect x="25" y="34" width="413" height="232" fill="white"/>
<path d="M266.695 183.616C264.26 182.927 261.871 182.085 259.558 181.058C258.754 180.701 257.941 180.366 257.119 180.053C259.341 175.299 265.121 164.337 275.145 154.421C265.695 152.646 256.168 157.044 251.369 165.363C249.025 169.426 246.876 173.675 245.895 177.011C237.082 175.451 228.871 175.7 224.533 176.332C215.905 177.589 216.047 183.943 216.047 183.943C216.021 186.787 217.744 188.624 219.476 189.751C220.964 190.72 222.683 191.285 224.455 191.433C243.789 193.029 250.02 187.262 250.02 187.262C245.318 189.154 234.696 189.504 232.535 189.556C232.259 189.562 231.984 189.552 231.709 189.522C225.129 188.783 224.935 184.34 224.935 184.34C224.621 177.597 232.655 177.937 232.655 177.937C243.288 178.136 253.746 187.999 253.746 187.999C269.049 201.497 286.124 203.289 299.815 202.073C321.485 200.148 334.847 181.408 334.847 181.408C307.978 193.137 278.543 186.97 266.693 183.614L266.695 183.616Z" fill="#3775BA" fill-opacity="0.2" stroke="#3775BA" stroke-opacity="0.6" stroke-miterlimit="10"/>
<path d="M208.387 100.688C206.081 99.4051 203.597 98.5201 201.033 98.0174C201.033 98.0174 203.549 100.741 204.39 102.634L204.369 102.604C206.793 107.179 204.659 116.474 198.217 126.764C189.488 140.703 176.16 151.175 168.451 150.157C160.742 149.139 161.568 137.013 170.296 123.073C171.578 121.024 172.962 119.052 174.411 117.179C174.411 117.179 182.815 104.958 193.035 101.102C193.515 100.922 193.999 100.756 194.485 100.615C195.984 100.178 197.514 99.9378 199.056 99.9529C198.953 99.8369 198.843 99.7252 198.731 99.6199C198.101 99.0206 197.329 98.548 196.442 98.2601C196.434 98.258 196.425 98.2537 196.417 98.2515C194.928 97.7704 193.351 97.6307 191.798 97.8112C190.372 97.9766 188.806 98.2107 187.143 98.5415C180.424 99.8734 172.105 102.767 164.925 108.96L162.032 111.71C159.384 114.483 156.964 117.789 154.936 121.733C152.675 126.128 151.785 131.127 152.565 136.005C153.628 142.643 157.928 150.486 171.91 152.17C171.91 152.17 199.768 155.676 215.313 127.668C217.15 124.36 218.2 120.659 218.198 116.876C218.194 111.701 216.342 105.111 208.389 100.688H208.387Z" fill="#3775BA" fill-opacity="0.2" stroke="#3775BA" stroke-opacity="0.6" stroke-miterlimit="10"/>
<path d="M361.995 96.2875C357.745 95.0029 352.253 94.6936 343.675 95.0781C323.7 95.9717 306.421 120.602 304.754 121.582C304.216 121.87 303.64 122.162 303.029 122.446C299.879 123.911 295.808 125.191 291.583 124.869C292.605 122.308 293.173 119.584 293.17 116.817C293.166 111.642 291.314 105.052 283.362 100.629C281.056 99.3465 278.571 98.4614 276.007 97.9588C276.007 97.9588 278.524 100.683 279.365 102.575L279.343 102.545C281.768 107.121 279.634 116.416 273.191 126.705C264.463 140.645 251.135 151.117 243.425 150.099C235.716 149.08 236.542 136.954 245.271 123.015C246.553 120.965 247.936 118.993 249.386 117.12C249.386 117.12 257.79 104.899 268.01 101.044C268.489 100.863 268.973 100.698 269.459 100.556C270.959 100.12 272.488 99.8792 274.03 99.8943C273.927 99.7783 273.817 99.6666 273.706 99.5613C273.075 98.962 272.303 98.4894 271.417 98.2015C271.408 98.1994 271.4 98.1951 271.391 98.1929C269.903 97.7117 268.326 97.5721 266.773 97.7526C265.347 97.918 263.781 98.1521 262.118 98.4829C255.398 99.8148 247.08 102.708 239.9 108.901L237.007 111.651C234.359 114.424 231.939 117.73 229.91 121.674C227.65 126.069 226.759 131.068 227.54 135.947C228.603 142.584 232.902 150.427 246.884 152.111C246.884 152.111 259.137 153.65 271.925 146.52L271.905 146.546C271.905 146.546 282.869 148.831 291.611 144.2C289.157 148.445 285.994 152.548 284.863 156.906C282.538 165.868 286.229 172.085 294.065 172.948C294.065 172.948 298.443 140.872 338.355 101.692C341.377 98.7257 345.97 94.3757 355.254 100.35C355.254 100.35 363.475 105.342 359.375 115.589C359.375 115.589 356.772 121.404 349.192 122.252C349.192 122.252 366.902 125.837 371.232 113.954C373.912 106.599 369.599 98.5882 361.995 96.2918V96.2875ZM298.569 132.75C298.042 133.347 297.201 134.185 296.132 134.864C295.663 135.111 295.169 135.358 294.646 135.601C291.398 137.111 287.165 138.419 282.8 137.981C283.957 136.744 285.089 135.403 286.184 133.945C289.963 134.005 294.986 133.532 299.497 131.296C299.193 131.768 298.886 132.252 298.569 132.748V132.75Z" fill="#3775BA" fill-opacity="0.2" stroke="#3775BA" stroke-opacity="0.6" stroke-miterlimit="10"/>
<path d="M228.024 148.958C219.435 147.826 205.974 147.992 193.082 153.401C190.908 154.314 188.651 155.048 186.358 155.663C174.749 158.767 154.045 157.822 127.138 146.836C131.092 156.434 141.176 162.599 150.296 166.728C146.325 173.881 136.899 188.261 131.612 193.451C128.59 196.417 116.912 205.504 107.63 199.53C107.63 199.53 99.411 194.538 103.509 184.291C103.509 184.291 106.112 178.476 113.692 177.627C113.692 177.627 95.9822 174.042 91.6522 185.926C88.972 193.281 93.2848 201.291 100.889 203.588C105.139 204.872 110.622 204.746 119.209 204.797C138.082 204.913 158.102 180.97 165.644 170.689C170.744 170.38 175.416 169.718 180.617 168.519C183.218 167.92 188.023 167.187 191.088 166.296C193.265 181.389 178.124 191.691 178.124 191.691H206.701C197.126 178.328 198.084 166.401 199.994 160.79C200.538 159.19 201.566 157.787 202.947 156.81C202.956 156.803 202.964 156.797 202.973 156.793C206.961 154.101 213.421 150.563 219.947 150.449C219.947 150.449 227.936 150.133 227.622 156.402C227.622 156.402 227.43 160.507 220.947 161.211C220.654 161.244 220.362 161.256 220.067 161.25C217.918 161.201 207.357 160.876 202.683 159.117C202.683 159.117 208.871 164.474 228.069 162.996C229.87 162.859 231.62 162.32 233.124 161.385C234.819 160.333 236.486 158.636 236.46 156.03C236.46 156.03 236.607 150.084 228.024 148.954V148.958Z" fill="#3775BA" fill-opacity="0.2" stroke="#3775BA" stroke-opacity="0.6" stroke-miterlimit="10"/>
<path d="M373.469 266H438L438 34H373.469V266Z" fill="#3775BA" fill-opacity="0.1"/>
<path d="M437.5 34.5V265.5H373.969V34.5H437.5Z" stroke="#3775BA" stroke-opacity="0.3"/>
<path d="M25.4688 266H90L90 34H25.4687L25.4688 266Z" fill="#3775BA" fill-opacity="0.1"/>
<path d="M89.5 34.5L89.5 265.5H25.9688L25.9687 34.5H89.5Z" stroke="#3775BA" stroke-opacity="0.3"/>
<path d="M438 94.1481V34L25 34V94.1481L438 94.1481Z" fill="#3775BA" fill-opacity="0.1"/>
<path d="M25.5 34.5L437.5 34.5V93.6481L25.5 93.6481V34.5Z" stroke="#3775BA" stroke-opacity="0.3"/>
<path d="M438 266.148V206L25 206V266.148H438Z" fill="#3775BA" fill-opacity="0.1"/>
<path d="M25.5 206.5L437.5 206.5V265.648H25.5V206.5Z" stroke="#3775BA" stroke-opacity="0.3"/>
<mask id="path-21-inside-1_604_17" fill="white">
<path d="M216 34H373V266H216V34Z"/>
</mask>
<path d="M217 266V34H215V266H217Z" fill="#3775BA" fill-opacity="0.3" mask="url(#path-21-inside-1_604_17)"/>
<mask id="path-23-inside-2_604_17" fill="white">
<path d="M90 34H237V266H90V34Z"/>
</mask>
<path d="M236 34V266H238V34H236Z" fill="#3775BA" fill-opacity="0.3" mask="url(#path-23-inside-2_604_17)"/>
</g>
<rect x="25.5" y="34.5" width="412" height="231" stroke="#3775BA" stroke-opacity="0.4"/>
<path d="M221 24.5L216 22.1132V27.8868L221 25.5V24.5ZM232 25.5L237 27.8868V22.1132L232 24.5V25.5ZM220.5 25.5H232.5V24.5H220.5V25.5Z" fill="#3775BB"/>
<path d="M221 282.5L216 280.113L216 285.887L221 283.5L221 282.5ZM368 283.5L373 285.887L373 280.113L368 282.5L368 283.5ZM220.5 283.5L368.5 283.5L368.5 282.5L220.5 282.5L220.5 283.5Z" fill="#3775BB"/>
<path d="M95 273.5L90 271.113L90 276.887L95 274.5L95 273.5ZM232 274.5L237 276.887L237 271.113L232 273.5L232 274.5ZM94.5 274.5L232.5 274.5L232.5 273.5L94.5 273.5L94.5 274.5Z" fill="#3775BB"/>
<path d="M17.5 99L19.8868 94L14.1132 94L16.5 99L17.5 99ZM16.5 201L14.1132 206L19.8867 206L17.5 201L16.5 201ZM16.5 98.5L16.5 201.5L17.5 201.5L17.5 98.5L16.5 98.5Z" fill="#3775BB"/>
<path d="M446.5 39L448.887 34L443.113 34L445.5 39L446.5 39ZM445.5 89L443.113 94L448.887 94L446.5 89L445.5 89ZM445.5 38.5L445.5 89.5L446.5 89.5L446.5 38.5L445.5 38.5Z" fill="#3775BB"/>
<path d="M446.5 211L448.887 206L443.113 206L445.5 211L446.5 211ZM445.5 261L443.113 266L448.887 266L446.5 261L445.5 261ZM445.5 210.5L445.5 261.5L446.5 261.5L446.5 210.5L445.5 210.5Z" fill="#3775BB"/>
<defs>
<clipPath id="clip0_604_17">
<rect x="25" y="34" width="413" height="232" fill="white"/>
</clipPath>
</defs>
</svg>
