<svg width="628" height="155" viewBox="0 0 628 155" fill="none" xmlns="http://www.w3.org/2000/svg">
<path d="M21.0779 98.4402C32.1666 98.4402 41.1557 89.4512 41.1557 78.3622C41.1557 67.2732 32.1666 58.2842 21.0779 58.2842C9.98917 58.2842 1 67.2732 1 78.3622C1 89.4512 9.98917 98.4402 21.0779 98.4402Z" stroke="#3775BB" stroke-width="0.573654" stroke-miterlimit="10"/>
<path d="M131.625 78.7677C131.849 78.5437 131.849 78.1807 131.625 77.9567L127.974 74.3057C127.75 74.0817 127.387 74.0817 127.163 74.3057C126.939 74.5297 126.939 74.8927 127.163 75.1167L130.408 78.3617L127.163 81.6067C126.939 81.8307 126.939 82.1947 127.163 82.4187C127.387 82.6427 127.75 82.6427 127.974 82.4187L131.625 78.7677ZM87.0482 78.9357H131.219V77.7887H87.0482V78.9357Z" fill="#3775BB"/>
<path d="M205.927 119.096C217.044 118.841 225.904 109.618 225.715 98.4984C226.518 78.2444 245.504 77.8994 245.504 77.8994C256.621 77.6444 265.48 68.4214 265.292 57.3014C265.104 46.1804 255.934 37.3754 244.814 37.6294C233.697 37.8844 224.838 47.1074 225.026 58.2274C225.026 58.2274 225.433 77.2054 205.238 78.8264C194.121 79.0824 185.261 88.3044 185.449 99.4244C185.64 110.543 194.808 119.35 205.927 119.096Z" fill="#3775BB"/>
<path d="M205.304 118.779C216.393 118.779 225.382 109.79 225.382 98.701C225.382 87.6121 216.393 78.623 205.304 78.623C194.215 78.623 185.226 87.6121 185.226 98.701C185.226 109.79 194.215 118.779 205.304 118.779Z" stroke="white" stroke-width="0.573654" stroke-miterlimit="10"/>
<path d="M197.276 98.7012H213.336" stroke="white" stroke-width="0.573654" stroke-miterlimit="10"/>
<path d="M205.306 90.6689V106.734" stroke="white" stroke-width="0.573654" stroke-miterlimit="10"/>
<path d="M245.135 77.6169C256.224 77.6169 265.213 68.6279 265.213 57.5389C265.213 46.4499 256.224 37.4609 245.135 37.4609C234.046 37.4609 225.057 46.4499 225.057 57.5389C225.057 68.6279 234.046 77.6169 245.135 77.6169Z" stroke="white" stroke-width="0.573654" stroke-miterlimit="10"/>
<path d="M237.104 57.54H253.165" stroke="white" stroke-width="0.573654" stroke-miterlimit="10"/>
<path d="M245.134 49.5078V65.5728" stroke="white" stroke-width="0.573654" stroke-miterlimit="10"/>
<path d="M245.709 118.345C256.797 118.345 265.787 109.356 265.787 98.2675C265.787 87.1795 256.797 78.1895 245.709 78.1895C234.62 78.1895 225.631 87.1795 225.631 98.2675C225.631 109.356 234.62 118.345 245.709 118.345Z" stroke="#3775BB" stroke-width="0.573654" stroke-miterlimit="10"/>
<path d="M237.68 98.2666H253.741" stroke="#3775BB" stroke-width="0.573654" stroke-miterlimit="10"/>
<path d="M204.979 78.1902C216.068 78.1902 225.057 69.2012 225.057 58.1122C225.057 47.0232 216.068 38.0342 204.979 38.0342C193.89 38.0342 184.901 47.0232 184.901 58.1122C184.901 69.2012 193.89 78.1902 204.979 78.1902Z" stroke="#3775BB" stroke-width="0.573654" stroke-miterlimit="10"/>
<path d="M196.951 58.1113H213.012" stroke="#3775BB" stroke-width="0.573654" stroke-miterlimit="10"/>
<path d="M364.1 78.7677C364.324 78.5437 364.324 78.1807 364.1 77.9567L360.449 74.3057C360.225 74.0817 359.862 74.0817 359.638 74.3057C359.414 74.5297 359.414 74.8927 359.638 75.1167L362.883 78.3617L359.638 81.6067C359.414 81.8307 359.414 82.1947 359.638 82.4187C359.862 82.6427 360.225 82.6427 360.449 82.4187L364.1 78.7677ZM319.523 78.9357H363.694V77.7887H319.523V78.9357Z" fill="#3775BB"/>
<path d="M528.009 34.5955C520.123 26.7559 507.335 26.7559 499.446 34.5955C484.283 48.0485 470.882 34.5955 470.882 34.5955C462.996 26.7559 450.207 26.7559 442.318 34.5955C434.429 42.4355 434.432 55.1485 442.318 62.9915C450.205 70.8315 462.993 70.8315 470.882 62.9915C470.882 62.9915 484.286 49.5505 499.446 62.9915C507.332 70.8315 520.12 70.8315 528.009 62.9915C535.895 55.1515 535.895 42.4385 528.009 34.5955Z" fill="#3775BB"/>
<path d="M585.375 34.5955C577.488 26.7559 564.7 26.7559 556.811 34.5955C541.649 48.0485 528.247 34.5955 528.247 34.5955C520.361 26.7559 507.573 26.7559 499.684 34.5955C491.795 42.4355 491.798 55.1485 499.684 62.9915C507.57 70.8315 520.358 70.8315 528.247 62.9915C528.247 62.9915 541.651 49.5505 556.811 62.9915C564.697 70.8315 577.486 70.8315 585.375 62.9915C593.261 55.1515 593.261 42.4385 585.375 34.5955Z" fill="#3775BB"/>
<path d="M585.409 120.322C593.249 112.436 593.249 99.6479 585.409 91.7589C571.957 76.5959 585.409 63.1949 585.409 63.1949C593.249 55.3089 593.249 42.5209 585.409 34.6319C577.569 26.7424 564.856 26.7452 557.013 34.6319C549.174 42.5179 549.174 55.3059 557.013 63.1949C557.013 63.1949 570.455 76.5989 557.013 91.7589C549.174 99.6449 549.174 112.433 557.013 120.322C564.853 128.208 577.567 128.208 585.409 120.322Z" fill="#3775BB"/>
<path d="M470.679 120.322C478.518 112.436 478.518 99.6479 470.679 91.7589C457.226 76.5959 470.679 63.1949 470.679 63.1949C478.518 55.3089 478.518 42.5209 470.679 34.6319C462.839 26.7424 450.125 26.7452 442.283 34.6319C434.443 42.5179 434.443 55.3059 442.283 63.1949C442.283 63.1949 455.724 76.5989 442.283 91.7589C434.443 99.6449 434.443 112.433 442.283 120.322C450.123 128.208 462.836 128.208 470.679 120.322Z" fill="#3775BB"/>
<path d="M528.009 91.9611C520.123 84.1211 507.334 84.1211 499.445 91.9611C484.283 105.413 470.882 91.9611 470.882 91.9611C462.996 84.1211 450.207 84.1211 442.318 91.9611C434.429 99.8001 434.432 112.514 442.318 120.356C450.204 128.196 462.993 128.196 470.882 120.356C470.882 120.356 484.286 106.915 499.445 120.356C507.332 128.196 520.12 128.196 528.009 120.356C535.895 112.517 535.895 99.8031 528.009 91.9611Z" fill="#3775BB"/>
<path d="M585.374 91.9611C577.488 84.1211 564.7 84.1211 556.811 91.9611C541.648 105.413 528.247 91.9611 528.247 91.9611C520.361 84.1211 507.573 84.1211 499.684 91.9611C491.795 99.8001 491.797 112.514 499.684 120.356C507.57 128.196 520.358 128.196 528.247 120.356C528.247 120.356 541.651 106.915 556.811 120.356C564.697 128.196 577.485 128.196 585.374 120.356C593.261 112.517 593.261 99.8031 585.374 91.9611Z" fill="#3775BB"/>
<path d="M456.481 68.871C467.57 68.871 476.559 59.881 476.559 48.793C476.559 37.704 467.57 28.7148 456.481 28.7148C445.392 28.7148 436.403 37.704 436.403 48.793C436.403 59.881 445.392 68.871 456.481 68.871Z" stroke="white" stroke-width="0.573654" stroke-miterlimit="10"/>
<path d="M448.45 48.7939H464.51" stroke="white" stroke-width="0.573654" stroke-miterlimit="10"/>
<path d="M456.48 40.7598V56.8248" stroke="white" stroke-width="0.573654" stroke-miterlimit="10"/>
<path d="M513.846 68.871C524.935 68.871 533.924 59.881 533.924 48.793C533.924 37.704 524.935 28.7148 513.846 28.7148C502.757 28.7148 493.768 37.704 493.768 48.793C493.768 59.881 502.757 68.871 513.846 68.871Z" stroke="white" stroke-width="0.573654" stroke-miterlimit="10"/>
<path d="M505.815 48.7939H521.876" stroke="white" stroke-width="0.573654" stroke-miterlimit="10"/>
<path d="M513.846 40.7598V56.8248" stroke="white" stroke-width="0.573654" stroke-miterlimit="10"/>
<path d="M571.212 68.871C582.3 68.871 591.29 59.881 591.29 48.793C591.29 37.704 582.3 28.7148 571.212 28.7148C560.123 28.7148 551.134 37.704 551.134 48.793C551.134 59.881 560.123 68.871 571.212 68.871Z" stroke="white" stroke-width="0.573654" stroke-miterlimit="10"/>
<path d="M563.18 48.7939H579.24" stroke="white" stroke-width="0.573654" stroke-miterlimit="10"/>
<path d="M571.21 40.7598V56.8248" stroke="white" stroke-width="0.573654" stroke-miterlimit="10"/>
<path d="M571.212 126.236C582.3 126.236 591.29 117.247 591.29 106.158C591.29 95.0691 582.3 86.0801 571.212 86.0801C560.123 86.0801 551.134 95.0691 551.134 106.158C551.134 117.247 560.123 126.236 571.212 126.236Z" stroke="white" stroke-width="0.573654" stroke-miterlimit="10"/>
<path d="M563.18 106.161H579.24" stroke="white" stroke-width="0.573654" stroke-miterlimit="10"/>
<path d="M571.21 98.1289V114.194" stroke="white" stroke-width="0.573654" stroke-miterlimit="10"/>
<path d="M513.846 126.236C524.935 126.236 533.924 117.247 533.924 106.158C533.924 95.0691 524.935 86.0801 513.846 86.0801C502.757 86.0801 493.768 95.0691 493.768 106.158C493.768 117.247 502.757 126.236 513.846 126.236Z" stroke="white" stroke-width="0.573654" stroke-miterlimit="10"/>
<path d="M505.815 106.161H521.876" stroke="white" stroke-width="0.573654" stroke-miterlimit="10"/>
<path d="M513.846 98.1289V114.194" stroke="white" stroke-width="0.573654" stroke-miterlimit="10"/>
<path d="M456.481 126.236C467.57 126.236 476.559 117.247 476.559 106.158C476.559 95.0691 467.57 86.0801 456.481 86.0801C445.392 86.0801 436.403 95.0691 436.403 106.158C436.403 117.247 445.392 126.236 456.481 126.236Z" stroke="white" stroke-width="0.573654" stroke-miterlimit="10"/>
<path d="M448.45 106.161H464.51" stroke="white" stroke-width="0.573654" stroke-miterlimit="10"/>
<path d="M456.48 98.1289V114.194" stroke="white" stroke-width="0.573654" stroke-miterlimit="10"/>
<path d="M585.408 91.9593C593.249 99.8003 605.962 99.8003 613.803 91.9593C621.644 84.1183 621.644 71.4053 613.803 63.5643C605.962 55.7233 593.249 55.7233 585.408 63.5643C577.567 71.4053 577.567 84.1183 585.408 91.9593Z" stroke="#3775BB" stroke-width="0.573654" stroke-miterlimit="10"/>
<path d="M591.577 77.7627H607.638" stroke="#3775BB" stroke-width="0.573654" stroke-miterlimit="10"/>
<path d="M471.251 34.5929C479.092 42.4329 491.805 42.4329 499.646 34.5929C507.486 26.7516 507.486 14.039 499.646 6.19806C491.805 -1.64284 479.092 -1.64284 471.251 6.19806C463.41 14.039 463.41 26.7516 471.251 34.5929Z" stroke="#3775BB" stroke-width="0.573654" stroke-miterlimit="10"/>
<path d="M477.42 20.3965H493.481" stroke="#3775BB" stroke-width="0.573654" stroke-miterlimit="10"/>
<path d="M471.251 148.75C479.092 156.591 491.805 156.591 499.646 148.75C507.486 140.909 507.486 128.196 499.646 120.355C491.805 112.515 479.092 112.515 471.251 120.355C463.41 128.196 463.41 140.909 471.251 148.75Z" stroke="#3775BB" stroke-width="0.573654" stroke-miterlimit="10"/>
<path d="M477.42 134.555H493.481" stroke="#3775BB" stroke-width="0.573654" stroke-miterlimit="10"/>
<path d="M413.887 91.9593C421.728 99.8003 434.44 99.8003 442.281 91.9593C450.122 84.1183 450.122 71.4053 442.281 63.5643C434.44 55.7233 421.728 55.7233 413.887 63.5643C406.046 71.4053 406.046 84.1183 413.887 91.9593Z" stroke="#3775BB" stroke-width="0.573654" stroke-miterlimit="10"/>
<path d="M420.055 77.7627H436.116" stroke="#3775BB" stroke-width="0.573654" stroke-miterlimit="10"/>
<path d="M471.135 92.0743C479.04 99.9793 491.856 99.9793 499.761 92.0743C507.666 84.1703 507.666 71.3533 499.761 63.4493C491.856 55.5443 479.04 55.5443 471.135 63.4493C463.231 71.3533 463.231 84.1703 471.135 92.0743Z" stroke="#3775BB" stroke-width="0.573654" stroke-miterlimit="10"/>
<path d="M477.42 77.7627H493.481" stroke="#3775BB" stroke-width="0.573654" stroke-miterlimit="10"/>
<path d="M528.616 34.5929C536.457 42.4329 549.17 42.4329 557.011 34.5929C564.852 26.7516 564.852 14.039 557.011 6.19806C549.17 -1.64284 536.457 -1.64284 528.616 6.19806C520.776 14.039 520.776 26.7516 528.616 34.5929Z" stroke="#3775BB" stroke-width="0.573654" stroke-miterlimit="10"/>
<path d="M534.785 20.3965H550.846" stroke="#3775BB" stroke-width="0.573654" stroke-miterlimit="10"/>
<path d="M528.616 148.75C536.457 156.591 549.17 156.591 557.011 148.75C564.852 140.909 564.852 128.196 557.011 120.355C549.17 112.515 536.457 112.515 528.616 120.355C520.776 128.196 520.776 140.909 528.616 148.75Z" stroke="#3775BB" stroke-width="0.573654" stroke-miterlimit="10"/>
<path d="M534.785 134.555H550.846" stroke="#3775BB" stroke-width="0.573654" stroke-miterlimit="10"/>
<path d="M528.501 92.0743C536.405 99.9793 549.222 99.9793 557.127 92.0743C565.031 84.1703 565.031 71.3533 557.127 63.4493C549.222 55.5443 536.405 55.5443 528.501 63.4493C520.596 71.3533 520.596 84.1703 528.501 92.0743Z" stroke="#3775BB" stroke-width="0.573654" stroke-miterlimit="10"/>
<path d="M534.785 77.7627H550.845" stroke="#3775BB" stroke-width="0.573654" stroke-miterlimit="10"/>
</svg>
