<svg width="103" height="41" viewBox="0 0 103 41" fill="none" xmlns="http://www.w3.org/2000/svg">
<g clip-path="url(#clip0_378_662)">
<path fill-rule="evenodd" clip-rule="evenodd" d="M64.5045 32.8882C63.6126 32.6325 62.7373 32.3199 61.8901 31.9395C61.5955 31.8071 61.2972 31.6831 60.9968 31.5668C61.8108 29.8033 63.9278 25.7369 67.5999 22.0586C64.1384 21.4003 60.6488 23.0314 58.8902 26.1177C58.0315 27.6248 57.2443 29.2008 56.885 30.4383C53.6569 29.8602 50.6494 29.9521 49.0597 30.1863C45.8993 30.652 45.9509 33.01 45.9509 33.01C45.9412 34.0648 46.573 34.7468 47.2071 35.1648C47.7524 35.5245 48.382 35.7342 49.0312 35.7885C56.114 36.3808 58.3965 34.2413 58.3965 34.2413C56.6741 34.9434 52.783 35.0733 51.991 35.0926C51.8901 35.0952 51.7891 35.0912 51.6888 35.0798C49.2783 34.8059 49.2076 33.1581 49.2076 33.1581C49.0925 30.6568 52.0358 30.7826 52.0358 30.7826C55.9311 30.8566 59.7619 34.5149 59.7619 34.5149C65.3675 39.5226 71.6222 40.1872 76.6385 39.7363C84.5763 39.0226 89.471 32.0701 89.471 32.0701C79.6286 36.4217 68.8452 34.133 64.5048 32.8882H64.5045Z" fill="#3775BB"/>
<path fill-rule="evenodd" clip-rule="evenodd" d="M99.3243 0.506014C97.7674 0.0293125 95.7557 -0.0852126 92.6133 0.057032C85.2965 0.388571 78.9664 9.52615 78.3555 9.88869C78.1589 9.99555 77.9476 10.1039 77.7233 10.2093C76.1808 10.9358 74.0338 11.5409 71.9583 10.7648L69.393 14.2687C69.393 14.2687 73.2592 15.085 76.4296 13.4933C76.3185 13.6687 76.2053 13.8482 76.0902 14.0324C75.8973 14.2538 75.5893 14.5649 75.1973 14.8162C75.026 14.9077 74.8442 14.9996 74.6527 15.0897C73.1102 15.8159 70.9633 16.4214 68.8877 15.6452L66.3224 19.1492C66.3224 19.1492 70.3386 19.9972 73.5408 18.2793C72.6417 19.8542 71.4833 21.3759 71.0693 22.9931C70.2174 26.3179 71.5692 28.6238 74.4403 28.944C74.4403 28.944 76.0441 17.045 90.6644 2.51057C91.7716 1.40981 93.4544 -0.20375 96.8546 2.01235C96.8546 2.01235 99.866 3.86408 98.3642 7.66566C98.3642 7.66566 97.411 9.82267 94.6337 10.1374C94.6337 10.1374 101.121 11.4676 102.708 7.05875C103.689 4.33021 102.109 1.35875 99.3243 0.506379V0.506014Z" fill="#3775BB"/>
<path fill-rule="evenodd" clip-rule="evenodd" d="M70.5186 2.11572C69.6739 1.64011 68.7637 1.31149 67.8242 1.12548C67.8242 1.12548 68.746 2.13614 69.054 2.83825L69.0457 2.82694C69.9332 4.52439 69.1521 7.97255 66.7916 11.7894C63.5938 16.9602 58.7117 20.8457 55.8874 20.4675C53.0628 20.0892 53.3658 15.591 56.5637 10.4202C57.0336 9.66015 57.5403 8.92814 58.0712 8.23333C58.0712 8.23333 61.1497 3.69974 64.8939 2.26927C65.0508 2.19815 65.2062 2.13286 65.3588 2.07487C65.3797 2.07888 65.4021 2.08362 65.4251 2.08873C65.974 1.92679 66.5345 1.83779 67.0993 1.8429C67.061 1.80023 67.0217 1.75865 66.9803 1.71889C66.7491 1.49677 66.4667 1.32134 66.1421 1.21484C66.1389 1.21374 66.136 1.21301 66.1331 1.21192C65.5882 1.03356 65.0104 0.981773 64.4413 1.04852C63.9191 1.10979 63.3456 1.19696 62.7358 1.31915C60.2744 1.81336 57.2269 2.88639 54.5967 5.18455L53.5371 6.20434C52.5673 7.23288 51.6808 8.45983 50.9379 9.92312C50.1099 11.5538 49.7835 13.4078 50.0695 15.2179C50.4582 17.6806 52.0343 20.59 57.1558 21.2148C57.1558 21.2148 67.3607 22.5151 73.0557 12.1254C73.7283 10.898 74.1131 9.52484 74.1121 8.12172C74.111 6.20215 73.4322 3.75664 70.5186 2.11645V2.11572Z" fill="#3775BB"/>
<path fill-rule="evenodd" clip-rule="evenodd" d="M50.248 20.2842C47.1021 19.8644 42.1702 19.9253 37.4479 21.9324C36.6509 22.2712 35.825 22.5437 34.9847 22.7712C30.7316 23.9227 23.1475 23.5718 13.2914 19.4971C14.7394 23.0576 18.4335 25.3444 21.7752 26.8763C20.3204 29.5297 16.8679 34.8646 14.9312 36.7896C13.824 37.8904 9.54638 41.2612 6.14619 39.0451C6.14619 39.0451 3.13478 37.1934 4.63652 33.3918C4.63652 33.3918 5.58971 31.2348 8.36706 30.92C8.36706 30.92 1.87937 29.5899 0.293237 33.9987C-0.688447 36.7273 0.891552 39.6987 3.67648 40.5511C5.23339 41.0278 7.2422 40.9804 10.3874 41.0001C17.3014 41.0435 24.6352 32.1612 27.397 28.3469C29.2652 28.2323 30.9772 27.9865 32.8818 27.5419C33.8346 27.3194 35.5949 27.0477 36.718 26.7173C37.5154 32.3166 31.8903 35.8829 31.8903 35.8829H42.6016C39.0943 30.9251 39.2804 26.757 39.98 24.6755C40.1798 24.0814 40.5556 23.5613 41.062 23.1987C41.0652 23.1965 41.0681 23.1943 41.0713 23.1918C42.5323 22.1935 44.8989 20.8809 47.2896 20.8385C47.2896 20.8385 50.2159 20.7215 50.1016 23.047C50.1016 23.047 50.0316 24.5697 47.6564 24.8312C47.5493 24.8429 47.4418 24.848 47.334 24.8455C46.5471 24.8276 42.678 24.7069 40.9657 24.054C40.9657 24.054 43.2327 26.041 50.2653 25.4936C50.925 25.4422 51.5658 25.2427 52.1173 24.8962C52.7387 24.5059 53.3489 23.876 53.3395 22.9091C53.3395 22.9091 53.3929 20.7032 50.2488 20.2838L50.248 20.2842Z" fill="#3775BB"/>
<path fill-rule="evenodd" clip-rule="evenodd" d="M43.0542 2.1372C42.2095 1.66159 41.2992 1.33297 40.3598 1.14696C40.3598 1.14696 41.2816 2.15763 41.5896 2.85973L41.5813 2.84843C42.4688 4.54588 41.6877 7.99403 39.3272 11.8109C36.1293 16.9817 31.2473 20.8672 28.423 20.4889C25.5984 20.1107 25.9014 15.6125 29.0992 10.4417C29.5692 9.68164 30.0759 8.94962 30.6067 8.25481C30.6067 8.25481 33.6852 3.72122 37.4295 2.29075C37.5864 2.21963 37.7418 2.15434 37.8944 2.09635C37.9153 2.10036 37.9373 2.10511 37.9607 2.11021C38.5096 1.94827 39.0701 1.85928 39.6348 1.86438C39.5966 1.82171 39.5573 1.78013 39.5158 1.74038C39.2847 1.51826 39.0023 1.34282 38.6777 1.23632C38.6744 1.23523 38.6716 1.23413 38.6687 1.2334C38.1237 1.05505 37.546 1.00326 36.9769 1.07C36.4547 1.13128 35.8812 1.21845 35.2714 1.34063C32.8099 1.83484 29.7625 2.90788 27.1323 5.20604L26.0727 6.22582C25.1029 7.25436 24.2164 8.48131 23.4735 9.94461C22.6454 11.5753 22.3191 13.4292 22.605 15.2394C22.9938 17.702 24.5699 20.6115 29.6914 21.2363C29.6914 21.2363 39.8963 22.5365 45.5913 12.1468C46.2639 10.9195 46.6487 9.54632 46.6476 8.14321C46.6466 6.22363 45.9678 3.77812 43.0542 2.13793V2.1372Z" fill="#3775BB"/>
</g>
<defs>
<clipPath id="clip0_378_662">
<rect width="103" height="41" fill="white"/>
</clipPath>
</defs>
</svg>
