<svg width="24" height="24" viewBox="0 0 24 24" fill="none" xmlns="http://www.w3.org/2000/svg">
<path d="M17.0065 15.0065H15.9532L15.5798 14.6465C16.8865 13.1265 17.6732 11.1532 17.6732 9.00651C17.6732 4.21984 13.7932 0.339844 9.00651 0.339844C4.21984 0.339844 0.339844 4.21984 0.339844 9.00651C0.339844 13.7932 4.21984 17.6732 9.00651 17.6732C11.1532 17.6732 13.1265 16.8865 14.6465 15.5798L15.0065 15.9532V17.0065L21.6732 23.6598L23.6598 21.6732L17.0065 15.0065ZM9.00651 15.0065C5.68651 15.0065 3.00651 12.3265 3.00651 9.00651C3.00651 5.68651 5.68651 3.00651 9.00651 3.00651C12.3265 3.00651 15.0065 5.68651 15.0065 9.00651C15.0065 12.3265 12.3265 15.0065 9.00651 15.0065Z" fill="#3775BB"/>
</svg>
