<svg width="152" height="96" viewBox="0 0 152 96" fill="none" xmlns="http://www.w3.org/2000/svg">
<path fill-rule="evenodd" clip-rule="evenodd" d="M146.229 62.0596C150.074 65.9403 151.997 71.0253 152 76.1107C152.032 81.1991 150.106 86.2971 146.222 90.1844C142.34 94.097 137.242 96.0354 132.156 95.9995C127.091 95.9937 122.028 94.0643 118.164 90.2113C103.287 76.9795 90.1331 90.2113 90.1331 90.2113C86.2323 94.0998 81.111 96.0291 75.9994 95.9992C70.8878 96.0291 65.7672 94.0998 61.8679 90.2113C46.9908 76.9795 33.8367 90.2113 33.8367 90.2113C29.971 94.0648 24.9067 95.9942 19.8411 95.9995C14.7522 96.0354 9.65244 94.0947 5.77033 90.1776C5.70272 90.1094 5.63571 90.0407 5.56929 89.9718C1.84244 86.128 -0.0142987 81.1491 8.29047e-05 76.175C-0.0144674 71.0675 1.90895 65.9558 5.77033 62.0596C18.9613 47.1364 5.77033 33.9415 5.77033 33.9415C1.90847 30.0434 -0.0149499 24.9301 8.8471e-05 19.822C-0.0149762 14.7782 1.89385 9.73028 5.72761 5.86668L5.77033 5.82344C9.65291 1.90726 14.7518 -0.0340973 19.8395 0.000453688C24.9064 0.00486291 29.9715 1.93426 33.8367 5.78866C33.8367 5.78866 46.988 19.0316 61.8679 5.78866C65.7687 1.90019 70.89 -0.0291016 76.0015 0.000788117C81.1131 -0.0291016 86.2337 1.90019 90.1331 5.78866C90.1331 5.78866 103.284 19.0316 118.164 5.78866C122.031 1.93392 127.098 0.00451579 132.165 0.000452549C137.185 -0.0336178 142.215 1.85606 146.076 5.67052C146.116 5.7097 146.156 5.74908 146.195 5.78866C150.097 9.68068 152.032 14.7912 152 19.8913C151.998 24.9771 150.074 30.0619 146.229 33.9415C146.229 33.9415 133.027 47.1336 146.229 62.0596Z" fill="#3775BB"/>
</svg>
