<svg width="200" height="200" viewBox="0 0 200 200" fill="none" xmlns="http://www.w3.org/2000/svg">
<path d="M113.279 54.6146C105.764 47.1285 93.5804 47.1285 86.0649 54.6146C71.3893 67.1937 58.8508 54.6146 58.8508 54.6146C51.3353 47.1285 39.152 47.1285 31.6366 54.6146C24.1211 62.1007 24.1211 74.2362 31.6366 81.7223C39.152 89.2085 51.3353 89.2085 58.8508 81.7223C58.8508 81.7223 71.3456 68.9735 86.0649 81.7223C93.5804 89.2085 105.764 89.2085 113.279 81.7223C120.794 74.2362 120.794 62.1007 113.279 54.6146Z" fill="#3775BB"/>
<path d="M167.599 54.6146C160.083 47.1285 147.9 47.1285 140.384 54.6146C125.709 67.1937 113.17 54.6146 113.17 54.6146C105.655 47.1285 93.4716 47.1285 85.9562 54.6146C78.4407 62.1007 78.4407 74.2362 85.9562 81.7223C93.4716 89.2085 105.655 89.2085 113.17 81.7223C113.17 81.7223 125.665 68.9735 140.384 81.7223C147.9 89.2085 160.083 89.2085 167.599 81.7223C175.114 74.2362 175.114 62.1007 167.599 54.6146Z" fill="#3775BB"/>
<path d="M99.615 151.358C110.18 151.358 118.745 142.776 118.745 132.191C118.745 121.605 110.18 113.023 99.615 113.023C89.0496 113.023 80.4847 121.605 80.4847 132.191C80.4847 142.776 89.0496 151.358 99.615 151.358Z" fill="#3775BB"/>
<path d="M141.369 88.0356C133.968 79.5692 121.058 79.2352 113.22 87.0389C98.5441 99.618 86.0056 87.0389 86.0056 87.0389C78.1731 79.2352 65.2629 79.5692 57.8568 88.0356C51.6203 95.1713 51.6203 106.02 57.8568 113.155C65.2575 121.622 78.1676 121.956 86.0056 114.152C86.0056 114.152 98.5004 101.403 113.22 114.152C121.052 121.956 133.962 121.622 141.369 113.155C147.605 106.02 147.605 95.1713 141.369 88.0356Z" fill="#3775BB"/>
</svg>
