<svg width="320" height="210" viewBox="0 0 320 210" fill="none" xmlns="http://www.w3.org/2000/svg">
<path d="M0 22C0 9.84973 9.84974 0 22 0H298C310.15 0 320 9.84974 320 22V138C320 150.15 310.15 160 298 160H22C9.84974 160 0 150.15 0 138V22Z" fill="#3775BB"/>
<path d="M22.0312 142L22.4297 139.574H20.1387L19.7461 142H19.0547L19.4531 139.574H18.1172L18.2227 138.895H19.5645L19.9395 136.621H18.6094L18.7148 135.941H20.0508L20.4492 133.516H21.1289L20.7363 135.941H23.0273L23.4258 133.516H24.1172L23.7188 135.941H25.0547L24.9492 136.621H23.6074L23.2324 138.895H24.5625L24.457 139.574H23.1211L22.7227 142H22.0312ZM20.25 138.895H22.541L22.916 136.621H20.625L20.25 138.895ZM28.8516 142.117C27.2227 142.117 26.0391 141.203 25.9922 139.867H26.8359C26.8828 140.77 27.7441 141.367 28.8398 141.367C30.0352 141.367 30.8848 140.676 30.8906 139.715C30.8848 138.713 30.0469 138.016 28.6758 138.016H28.1484V137.266H28.6758C29.7891 137.271 30.5918 136.645 30.5977 135.684C30.5918 134.77 29.9062 134.131 28.8633 134.137C27.8672 134.131 27.0234 134.717 27 135.637H26.1914C26.2207 134.307 27.4043 133.398 28.875 133.398C30.4219 133.398 31.4062 134.424 31.3945 135.648C31.4062 136.615 30.8203 137.336 29.9062 137.594V137.652C31.0195 137.846 31.7051 138.643 31.6992 139.727C31.7051 141.092 30.498 142.117 28.8516 142.117ZM33.5625 142L37.5234 134.312V134.266H32.9648V133.516H38.4023V134.301L34.4414 142H33.5625ZM40.3125 142L44.2734 134.312V134.266H39.7148V133.516H45.1523V134.301L41.1914 142H40.3125ZM49.0781 142.117C47.5898 142.117 46.4824 141.18 46.4414 139.867H47.25C47.2969 140.74 48.0645 141.373 49.0781 141.379C50.2676 141.373 51.1113 140.494 51.1055 139.328C51.1055 138.115 50.2031 137.266 49.0195 137.254C48.2988 137.248 47.7129 137.494 47.3789 138.039H46.5469L47.1328 133.516H51.5508V134.266H47.8359L47.4727 137.066H47.543C47.9121 136.715 48.5273 136.504 49.1602 136.504C50.7246 136.504 51.9258 137.664 51.9258 139.316C51.9199 140.934 50.7246 142.117 49.0781 142.117ZM53.6367 142V133.516H56.5312C58.2012 133.516 59.0449 134.465 59.0391 135.742C59.0449 136.803 58.4473 137.377 57.6797 137.582V137.652C58.5117 137.705 59.373 138.473 59.3789 139.773C59.373 141.057 58.5293 142 56.6836 142H53.6367ZM54.4688 141.25H56.6719C57.9727 141.25 58.5703 140.617 58.5703 139.762C58.5703 138.812 57.832 138.057 56.707 138.051H54.4688V141.25ZM54.4688 137.324H56.5781C57.5625 137.324 58.2422 136.668 58.2422 135.742C58.2422 134.875 57.668 134.26 56.5195 134.266H54.4688V137.324ZM61.0078 142V133.516H63.9023C65.5723 133.516 66.416 134.465 66.4102 135.742C66.416 136.803 65.8184 137.377 65.0508 137.582V137.652C65.8828 137.705 66.7441 138.473 66.75 139.773C66.7441 141.057 65.9004 142 64.0547 142H61.0078ZM61.8398 141.25H64.043C65.3438 141.25 65.9414 140.617 65.9414 139.762C65.9414 138.812 65.2031 138.057 64.0781 138.051H61.8398V141.25ZM61.8398 137.324H63.9492C64.9336 137.324 65.6133 136.668 65.6133 135.742C65.6133 134.875 65.0391 134.26 63.8906 134.266H61.8398V137.324Z" fill="white"/>
<mask id="mask0_380_1756" style="mask-type:alpha" maskUnits="userSpaceOnUse" x="0" y="174" width="320" height="36">
<rect y="174" width="320" height="36" rx="17.95" fill="#C4C4C4"/>
</mask>
<g mask="url(#mask0_380_1756)">
<rect y="174" width="320" height="36" rx="17.95" fill="white"/>
<rect y="171.75" width="80" height="38.25" fill="#3775BB"/>
<rect y="174" width="80" height="36" fill="#3775BB"/>
<rect opacity="0.75" x="80" y="174" width="80" height="36" fill="#3775BB"/>
<rect opacity="0.5" x="160" y="174" width="80" height="36" fill="#3775BB"/>
<rect opacity="0.25" x="240" y="174" width="80" height="36" fill="#3775BB"/>
</g>
</svg>
