<svg width="89" height="41" viewBox="0 0 89 41" fill="none" xmlns="http://www.w3.org/2000/svg">
<g clip-path="url(#clip0_246_282)">
<path opacity="0.4" d="M0 0V19.8947V20.1545V40.05H22.25V0H0Z" fill="#1758A7"/>
<path opacity="0.4" d="M41.9474 20.025H42.1146C42.1137 9.33115 33.3325 0.59363 22.2679 0H22.25V20.025H41.9474Z" fill="#1758A7"/>
<path opacity="0.4" d="M22.4028 20.0254H22.25V40.0504H22.2679C33.3334 39.4568 42.1146 30.7192 42.1146 20.0262H41.9474H22.4037L22.4028 20.0254Z" fill="#1758A7"/>
<path opacity="0.4" d="M89 25.9141H46.9722V40.0496H89V25.9141Z" fill="#1758A7"/>
<path opacity="0.4" d="M81.5828 14.1357H46.9722V25.9155H81.5828V14.1357Z" fill="#1758A7"/>
<path opacity="0.4" d="M89 0H46.9722V14.1355H89V0Z" fill="#1758A7"/>
<path opacity="0.4" d="M22.4028 20.0254H22.25V40.0504H22.2679C33.3334 39.4568 42.1146 30.7192 42.1146 20.0262H41.9474H22.4037L22.4028 20.0254Z" fill="#1758A7"/>
<path opacity="0.4" d="M0 0V19.8947V20.1545V40.05H22.25V0H0Z" fill="#1758A7"/>
<path opacity="0.4" d="M0 0V19.8947V20.1545V40.05H22.25V0H0Z" fill="#1758A7"/>
<path opacity="0.4" d="M89 25.9141H46.9722V40.0496H89V25.9141Z" fill="#1758A7"/>
<path opacity="0.4" d="M89 25.9141H46.9722V40.0496H89V25.9141Z" fill="#1758A7"/>
<path opacity="0.4" d="M81.5828 14.1357H46.9722V25.9155H81.5828V14.1357Z" fill="#1758A7"/>
</g>
<defs>
<clipPath id="clip0_246_282">
<rect width="89" height="40.05" fill="white"/>
</clipPath>
</defs>
</svg>
