<svg width="117" height="99" viewBox="0 0 117 99" fill="none" xmlns="http://www.w3.org/2000/svg">
<path d="M110.602 92.2385C118.496 84.2979 118.496 71.4213 110.602 63.4778C97.0561 48.2108 110.602 34.7172 110.602 34.7172C118.496 26.7766 118.496 13.9 110.602 5.95653C102.708 -1.98694 89.9067 -1.98407 82.0099 5.95653C74.1159 13.8971 74.1159 26.7737 82.0099 34.7172C82.0099 34.7172 95.5441 48.2136 82.0099 63.4778C74.1159 71.4184 74.1159 84.295 82.0099 92.2385C89.9039 100.179 102.705 100.179 110.602 92.2385Z" fill="#3775BB"/>
<path d="M21.2164 69.3137C32.3816 69.3137 41.4328 60.2625 41.4328 49.0973C41.4328 37.9321 32.3816 28.8809 21.2164 28.8809C10.0512 28.8809 1 37.9321 1 49.0973C1 60.2625 10.0512 69.3137 21.2164 69.3137Z" fill="#3775BB" stroke="#2686DF" stroke-width="0.577611" stroke-miterlimit="10"/>
</svg>
