<svg width="200" height="200" viewBox="0 0 200 200" fill="none" xmlns="http://www.w3.org/2000/svg">
<path d="M155.043 146.133C165.639 146.133 174.229 137.543 174.229 126.947C174.229 116.351 165.639 107.761 155.043 107.761C144.447 107.761 135.857 116.351 135.857 126.947C135.857 137.543 144.447 146.133 155.043 146.133Z" fill="#3775BB"/>
<path d="M114.446 59.6164C107.024 51.1416 94.076 50.8073 86.2152 58.6187C71.4968 71.2102 58.9218 58.6187 58.9218 58.6187C51.0665 50.8073 38.1187 51.1416 30.691 59.6164C24.4363 66.759 24.4363 77.6183 30.691 84.761C38.1132 93.2357 51.061 93.5701 58.9218 85.7586C58.9218 85.7586 71.453 72.9972 86.2152 85.7586C94.0705 93.5701 107.018 93.2357 114.446 84.761C120.701 77.6183 120.701 66.759 114.446 59.6164Z" fill="#3775BB"/>
<path d="M114.446 114.377C107.024 105.902 94.076 105.568 86.2152 113.379C71.4968 125.971 58.9218 113.379 58.9218 113.379C51.0665 105.568 38.1187 105.902 30.691 114.377C24.4363 121.52 24.4363 132.379 30.691 139.522C38.1132 147.996 51.061 148.331 58.9218 140.519C58.9218 140.519 71.453 127.758 86.2152 140.519C94.0705 148.331 107.018 147.996 114.446 139.522C120.701 132.379 120.701 121.52 114.446 114.377Z" fill="#3775BB"/>
<path d="M169.536 59.6164C162.114 51.1416 149.166 50.8073 141.306 58.6187C126.587 71.2102 114.012 58.6187 114.012 58.6187C106.157 50.8073 93.209 51.1416 85.7813 59.6164C79.5267 66.759 79.5267 77.6183 85.7813 84.761C93.2035 93.2357 106.151 93.5701 114.012 85.7586C114.012 85.7586 126.543 72.9972 141.306 85.7586C149.161 93.5701 162.109 93.2357 169.536 84.761C175.791 77.6183 175.791 66.759 169.536 59.6164Z" fill="#3775BB"/>
</svg>
