<svg width="200" height="200" viewBox="0 0 200 200" fill="none" xmlns="http://www.w3.org/2000/svg">
<path d="M73.1303 91.3361C83.6956 91.3361 92.2605 82.7547 92.2605 72.169C92.2605 61.5834 83.6956 53.002 73.1303 53.002C62.5649 53.002 54 61.5834 54 72.169C54 82.7547 62.5649 91.3361 73.1303 91.3361Z" fill="#3775BB"/>
<path d="M141.284 113.443C133.768 105.957 121.585 105.957 114.069 113.443C99.3938 126.022 86.8553 113.443 86.8553 113.443C79.3398 105.957 67.1566 105.957 59.6411 113.443C52.1257 120.929 52.1257 133.064 59.6411 140.55C67.1566 148.037 79.3398 148.037 86.8553 140.55C86.8553 140.55 99.35 127.802 114.069 140.55C121.585 148.037 133.768 148.037 141.284 140.55C148.799 133.064 148.799 120.929 141.284 113.443Z" fill="#3775BB"/>
<path d="M140.943 140.447C148.415 132.917 148.415 120.711 140.943 113.181C128.388 98.4767 140.943 85.914 140.943 85.914C148.415 78.3841 148.415 66.1774 140.943 58.6474C133.471 51.1175 121.359 51.1175 113.887 58.6474C106.416 66.1774 106.416 78.3841 113.887 85.914C113.887 85.914 126.612 98.4329 113.887 113.181C106.416 120.711 106.416 132.917 113.887 140.447C121.359 147.977 133.471 147.977 140.943 140.447Z" fill="#3775BB"/>
</svg>
